HIERARCHY
ROOT Hips
{
	OFFSET 0.00000 0.00000 0.00000
	CHANNELS 6 Xposition Yposition Zposition Yrotation Zrotation Xrotation 
	JOINT Lumbar
	{
		OFFSET 0 0 0
		CHANNELS 3 Zrotation Xrotation Yrotation
		JOINT Neck
		{
			OFFSET 0.00 0.2701 0.00
			CHANNELS 3 Zrotation Xrotation Yrotation
			End Site
			{
				OFFSET 0.00 0.1379 0.00
			}
		}
		JOINT RightShoulder
		{
			OFFSET 0.0119 0.2289 0.1181
			CHANNELS 3 Zrotation Xrotation Yrotation
			JOINT RightElbow
			{
				OFFSET 0.00 -0.1475 0.00
				CHANNELS 2 Zrotation Yrotation
				JOINT RightWrist
				{
					OFFSET 0.00 -0.1605 0.00
					CHANNELS 2 Zrotation Xrotation
					End Site
					{
						OFFSET 0.0040 -0.1068 0.0006
					}
				}
			}
		}
		JOINT LeftShoulder
		{
			OFFSET 0.0119 0.2289 -0.1181
			CHANNELS 3 Zrotation Xrotation Yrotation
			JOINT LeftElbow
			{
				OFFSET 0.00 -0.1475 0.00
				CHANNELS 2 Zrotation Yrotation
				JOINT LeftWrist
				{
					OFFSET 0.00 -0.1605 0.00
					CHANNELS 2 Zrotation Xrotation
					End Site
					{
						OFFSET 0.0040 -0.1068 -0.0006
					}
				}
			}
		}
	}
	JOINT RightHip
	{
		OFFSET 0.0316 -0.0424 0.0458
		CHANNELS 3 Zrotation Xrotation Yrotation
		JOINT RightKnee
		{
			OFFSET 0.00 -0.2438 0.00
			CHANNELS 1 Zrotation
			JOINT RightAnkle
			{
				OFFSET 0.00 -0.2449 0.00
				CHANNELS 3 Zrotation Xrotation Yrotation
				End Site
				{
					OFFSET 0.1237 -0.0542 0.0051
				}
			}
		}
	}
	JOINT LeftHip
	{
		OFFSET 0.0316 -0.0424 -0.0458
		CHANNELS 3 Zrotation Xrotation Yrotation
		JOINT LeftKnee
		{
			OFFSET 0.00 -0.2438 0.00
			CHANNELS 1 Zrotation
			JOINT LeftAnkle
			{
				OFFSET 0.00 -0.2449 0.00
				CHANNELS 3 Zrotation Xrotation Yrotation
				End Site
				{
					OFFSET 0.1237 -0.0542 -0.0051
				}
			}
		}
	}
}
MOTION
Frames: 23
Frame Time: 0.02
-0 0.57926 -0 177.23029 0 -5.27258 5.14435 2.85868 -4.69454 -18.13017 8.43072 0.07981 2.24556 -15.77618 -36.95455 5.32853 73.13202 -3.44277 3.3337 6.02819 4.39309 32.42341 5.32862 -73.6655 -5.73056 -0.19372 -4.08437 8.63033 12.90873 -5.73039 1.72971 -4.09415 -5.56161 -4.61681 0.93067 -6.31898 -4.31332 7.4254 5.91058 7.28762
2e-05 0.57927 -5e-05 177.07894 0 -5.29143 5.18635 2.92511 -4.71547 -18.28805 8.34146 0.10151 2.36008 -15.62439 -37.05531 5.32853 73.10019 -3.37057 3.45908 5.62651 4.46337 35.22206 5.3286 -73.03487 -5.78656 -0.2743 -4.10041 8.73563 15.02824 -5.72854 1.51197 -4.26251 -7.52329 -4.63262 0.94485 -6.20961 -4.30022 7.43498 5.943 7.31481
4e-05 0.57927 -0.0001 176.92909 0 -5.31016 5.22832 2.99148 -4.73581 -18.44788 8.25243 0.12306 2.48055 -15.47518 -37.14496 5.32855 73.07026 -3.29905 3.58096 5.23525 4.53292 37.98754 5.32864 -72.40874 -5.8416 -0.35391 -4.11588 8.83983 17.1246 -5.72707 1.29653 -4.42932 -9.46321 -4.6481 0.95893 -6.10143 -4.28721 7.44431 5.97506 7.34181
7e-05 0.57927 -0.00015 176.78347 0 -5.32846 5.2704 3.05741 -4.75491 -18.61358 8.16415 0.14455 2.61901 -15.33365 -37.19692 5.32855 73.045 -3.22827 3.69217 4.87212 4.59991 40.68716 5.32857 -71.78567 -5.89511 -0.43047 -4.12901 8.93976 19.13039 -5.72718 1.0901 -4.59098 -11.31645 -4.663 0.97279 -5.99614 -4.27372 7.45269 6.00581 7.3676
7e-05 0.57928 -0.00021 176.6151 0 -5.34888 5.3117 3.12465 -4.78169 -18.74403 8.07276 0.16675 2.65385 -15.15008 -37.45543 5.32856 72.9919 -3.15205 3.86243 4.34839 4.68005 43.78308 5.32859 -71.13584 -5.95879 -0.52328 -4.15428 9.06127 21.59374 -5.71906 0.83824 -4.77919 -13.60652 -4.68166 0.98788 -5.87446 -4.26193 7.4661 6.04325 7.39885
0.00013 0.57928 -0.00025 176.49521 0 -5.36488 5.35472 3.18976 -4.79144 -18.95168 7.98746 0.18714 2.91346 -15.05653 -37.27214 5.32863 72.99982 -3.08842 3.9059 4.17274 4.7326 46.00557 5.32878 -70.55042 -5.99952 -0.58154 -4.154 9.13773 23.10194 -5.72826 0.68113 -4.91158 -14.98554 -4.69188 1.0003 -5.78834 -4.24713 7.46885 6.06668 7.41919
0.00037 0.5793 -0.00021 176.50927 0 -5.36791 5.40281 3.24475 -4.75901 -19.36255 7.92156 0.20531 3.77617 -15.21016 -35.85887 5.32849 73.16445 -3.05028 3.60219 4.92221 4.70521 46.06359 5.32818 -70.07208 -5.98822 -0.54216 -4.07912 9.08076 21.78357 -5.78831 0.80523 -4.88303 -13.65993 -4.68222 1.00588 -5.79693 -4.2183 7.44072 6.04934 7.4051
0.00068 0.57931 -0.00015 176.57223 0 -5.36657 5.45243 3.29862 -4.70857 -19.85335 7.86098 0.2212 4.86961 -15.45491 -34.00064 5.32869 73.39249 -3.02634 3.16985 6.03019 4.65073 45.19749 5.32912 -69.67074 -5.95218 -0.46755 -3.9789 8.97963 19.53001 -5.86557 1.02198 -4.79913 -11.44357 -4.66338 1.00855 -5.8434 -4.18742 7.40181 6.01831 7.38213
0.00095 0.57933 -0.0001 176.61287 0 -5.36779 5.50146 3.3556 -4.66298 -20.31501 7.79657 0.23627 5.8706 -15.6593 -32.34954 5.32872 73.6001 -3.00209 2.79365 6.99914 4.61088 44.58899 5.32875 -69.28032 -5.9194 -0.41134 -3.89311 8.90479 17.83076 -5.93281 1.18321 -4.74517 -9.76117 -4.64654 1.01236 -5.87313 -4.16117 7.36902 5.99475 7.36424
0.00121 0.57934 -6e-05 176.65412 0 -5.36678 5.5509 3.40084 -4.6309 -20.74754 7.7393 0.25895 6.82074 -15.85995 -30.67452 5.32798 73.77449 -2.9526 2.42612 7.86871 4.56078 44.65282 5.32632 -68.69835 -5.91819 -0.34792 -3.79594 8.80474 15.60298 -6.00845 1.39917 -4.67183 -7.55114 -4.63898 1.01745 -5.89536 -4.1194 7.33209 5.9655 7.33632
0.00153 0.57936 2e-05 176.70547 0 -5.36915 5.59876 3.47119 -4.56709 -21.25814 7.66696 0.26548 7.92957 -16.08915 -28.94782 5.32995 74.03039 -2.95818 2.01139 9.02846 4.52618 43.11297 5.33435 -68.53094 -5.84803 -0.28755 -3.71529 8.74542 14.23237 -6.07175 1.52549 -4.6247 -6.20667 -4.60978 1.01857 -5.94907 -4.10934 7.29996 5.94539 7.33422
0.00194 0.5794 0.00023 176.77492 0 -5.38375 5.65072 3.60362 -4.41414 -21.97792 7.56403 0.22534 9.43767 -16.38207 -27.15235 5.33032 74.51969 -3.11976 1.48582 10.91796 4.53646 37.23479 5.32137 -69.51435 -5.57154 -0.27536 -3.69665 8.82075 15.64827 -6.08765 1.36096 -4.67254 -7.66346 -4.52402 1.01496 -6.01713 -4.18838 7.29486 5.94917 7.34083
0.00241 0.57944 0.00049 176.85238 0 -5.40157 5.6991 3.76293 -4.2309 -22.77055 7.4434 0.16914 11.0939 -16.69891 -25.32784 5.33486 75.08457 -3.33482 0.9195 13.08326 4.56451 29.80197 5.32809 -70.90903 -5.2314 -0.26189 -3.69373 8.93674 17.92774 -6.09215 1.1064 -4.74715 -9.99026 -4.41656 1.00659 -6.12423 -4.29924 7.29318 5.96345 7.38272
0.00286 0.57948 0.00074 176.92486 0 -5.41667 5.74372 3.91466 -4.06551 -23.52184 7.32286 0.12251 12.67126 -17.0005 -23.53809 5.34366 75.59896 -3.52062 0.37961 15.11279 4.58693 23.1678 5.3583 -72.09726 -4.93384 -0.22827 -3.67684 9.02634 19.68125 -6.10799 0.90722 -4.80339 -11.78657 -4.31852 0.99662 -6.25893 -4.39484 7.28219 5.97604 7.45481
0.00327 0.57952 0.00096 177.00502 0 -5.43685 5.81234 4.04608 -3.88258 -24.31273 7.2363 0.06778 14.30686 -17.32509 -21.63721 5.32736 76.18294 -3.7281 -0.19845 17.20238 4.5965 16.10454 5.25172 -73.36495 -4.57456 -0.27991 -3.68748 9.14672 21.94807 -6.09883 0.65221 -4.88329 -14.10458 -4.22231 1.00185 -6.21637 -4.49365 7.30228 5.97529 7.34408
0.00379 0.57957 0.00124 177.07007 0 -5.44736 5.8286 4.22709 -3.72879 -25.0348 7.0744 0.02416 15.85153 -17.60463 -19.97246 5.36321 76.64007 -3.90264 -0.70465 19.22326 4.63937 9.58774 5.43455 -74.57099 -4.33307 -0.15544 -3.64533 9.21456 23.38519 -6.13829 0.48837 -4.92177 -15.57631 -4.11689 0.97508 -6.53566 -4.59347 7.26019 6.00481 7.60674
0.00461 0.57967 0.00167 177.0942 0 -5.42954 5.71325 4.53086 -3.6671 -25.57039 6.71165 0.03243 17.12281 -17.76753 -18.91922 5.55196 76.71948 -3.97532 -1.00452 21.02242 4.75283 4.88071 6.41257 -75.44269 -4.39771 0.4659 -3.44927 9.11603 22.13003 -6.31925 0.61978 -4.8324 -14.30853 -3.99448 0.85442 -7.98559 -4.68719 7.03166 6.11649 9.03098
0.00556 0.57979 0.00217 177.10206 0 -5.40201 5.54269 4.88496 -3.63522 -26.02956 6.27339 0.04947 18.29339 -17.88136 -18.11528 5.79129 76.66983 -4.0124 -1.22931 22.73389 4.90228 0.79708 7.68043 -76.24851 -4.58927 1.26189 -3.20033 8.96542 20.04757 -6.54868 0.8418 -4.70182 -12.19625 -3.86299 0.70289 -9.7736 -4.78098 6.74287 6.25773 10.80571
0.00646 0.5799 0.00264 177.11535 0 -5.37952 5.38994 5.22114 -3.58687 -26.50957 5.86752 0.0508 19.50018 -18.00815 -17.23128 6.00086 76.685 -4.06443 -1.4869 24.46115 5.04685 -3.51551 8.81574 -77.12713 -4.7461 1.97107 -2.97876 8.84654 18.4765 -6.75282 1.00747 -4.59512 -10.60295 -3.73365 0.57003 -11.31196 -4.87557 6.49116 6.38525 12.32641
0.00733 0.58001 0.00311 177.13734 0 -5.35462 5.26933 5.53769 -3.54927 -27.05175 5.46818 0.09997 20.75392 -18.17489 -16.20759 6.2388 76.6774 -4.12405 -1.75294 26.30221 5.14451 -8.11361 9.95755 -77.84374 -4.80548 2.71314 -2.74428 8.69568 16.37417 -6.97005 1.23311 -4.46825 -8.47974 -3.61193 0.41781 -13.2498 -4.96803 6.19961 6.51595 14.2407
0.0083 0.58013 0.00359 177.13709 0 -5.33226 5.06678 5.90629 -3.4974 -27.44414 5.03879 0.05316 21.88239 -18.24692 -15.53206 6.43008 76.68487 -4.15807 -1.98127 27.8788 5.34703 -11.94711 11.15149 -78.8711 -5.09671 3.42639 -2.52311 8.59771 15.15708 -7.17205 1.35774 -4.37239 -7.2346 -3.47243 0.29816 -14.44441 -5.06416 5.97546 6.6449 15.42755
0.00954 0.58025 0.0041 177.07994 0 -5.32049 4.66737 6.41023 -3.39303 -27.45099 4.53384 -0.27219 22.70193 -18.06457 -15.77919 6.47582 76.77126 -4.13545 -2.13858 28.76919 5.8402 -13.82325 12.44268 -80.81731 -6.01439 4.03209 -2.35813 8.66536 16.70077 -7.31743 1.17125 -4.37994 -8.73596 -3.28639 0.28026 -13.42461 -5.17376 5.96261 6.77936 14.43678
0.01089 0.58038 0.00461 177.00046 0 -5.3114 4.18406 6.96399 -3.27422 -27.30754 4.00332 -0.69206 23.39574 -17.78914 -16.36421 6.47357 76.87586 -4.08712 -2.25779 29.39024 6.43566 -14.94215 13.77108 -83.0666 -7.15719 4.59983 -2.20679 8.78655 19.13758 -7.44669 0.88233 -4.41881 -11.12324 -3.08274 0.29546 -11.65917 -5.28636 6.01773 6.908 12.71692
